<svg width="278" height="40" viewBox="0 0 278 40" fill="none" xmlns="http://www.w3.org/2000/svg">
<path d="M20.2422 1.18761C20.3047 1.55479 21.5 8.5704 21.5 11.2501C21.5 15.336 19.3281 18.2501 16.1172 19.4219L17.125 38.0234C17.1797 39.0938 16.3281 40 15.25 40H10.25C9.17969 40 8.32031 39.1016 8.375 38.0234L9.38281 19.4219C6.16406 18.2501 4 15.3282 4 11.2501C4 8.56259 5.19531 1.55479 5.25781 1.18761C5.50781 -0.398325 8.79688 -0.421762 9 1.27355V12.3048C9.10156 12.5704 10.1797 12.5548 10.25 12.3048C10.3594 10.3282 10.8672 1.4298 10.875 1.22667C11.1328 -0.398325 14.3672 -0.398325 14.6172 1.22667C14.6328 1.43761 15.1328 10.3282 15.2422 12.3048C15.3125 12.5548 16.3984 12.5704 16.4922 12.3048V1.27355C16.6953 -0.41395 19.9922 -0.398325 20.2422 1.18761ZM29.5547 23.5079L28.3828 37.9688C28.2891 39.0625 29.1562 40 30.25 40H34.625C35.6641 40 36.5 39.1641 36.5 38.125V1.87511C36.5 0.843859 35.6641 0.00011166 34.625 0.00011166C28.1797 0.00011166 17.3281 13.9454 29.5547 23.5079Z" fill="white"/>
<path d="M70.5031 29H66.9289V11.8672H76.7492V14.8438H70.5031V19.2617H76.3156V22.2266H70.5031V29ZM82.0672 12.5117C82.0672 11.3477 82.7156 10.7656 84.0125 10.7656C85.3094 10.7656 85.9578 11.3477 85.9578 12.5117C85.9578 13.0664 85.7938 13.5 85.4656 13.8125C85.1453 14.1172 84.6609 14.2695 84.0125 14.2695C82.7156 14.2695 82.0672 13.6836 82.0672 12.5117ZM85.7938 29H82.2195V15.8984H85.7938V29ZM104.049 29H100.475V21.3477C100.475 20.4023 100.307 19.6953 99.9711 19.2266C99.6352 18.75 99.1 18.5117 98.3656 18.5117C97.3656 18.5117 96.643 18.8477 96.1977 19.5195C95.7523 20.1836 95.5297 21.2891 95.5297 22.8359V29H91.9555V15.8984H94.6859L95.1664 17.5742H95.3656C95.7641 16.9414 96.3109 16.4648 97.0063 16.1445C97.7094 15.8164 98.5063 15.6523 99.3969 15.6523C100.92 15.6523 102.077 16.0664 102.866 16.8945C103.655 17.7148 104.049 18.9023 104.049 20.457V29ZM114.277 29.2344C112.738 29.2344 111.527 28.6367 110.645 27.4414C109.77 26.2461 109.332 24.5898 109.332 22.4727C109.332 20.3242 109.777 18.6523 110.668 17.457C111.566 16.2539 112.801 15.6523 114.371 15.6523C116.02 15.6523 117.277 16.293 118.145 17.5742H118.262C118.082 16.5977 117.992 15.7266 117.992 14.9609V10.7656H121.578V29H118.836L118.145 27.3008H117.992C117.18 28.5898 115.941 29.2344 114.277 29.2344ZM115.531 26.3867C116.445 26.3867 117.113 26.1211 117.535 25.5898C117.965 25.0586 118.199 24.1562 118.238 22.8828V22.4961C118.238 21.0898 118.02 20.082 117.582 19.4727C117.152 18.8633 116.449 18.5586 115.473 18.5586C114.676 18.5586 114.055 18.8984 113.609 19.5781C113.172 20.25 112.953 21.2305 112.953 22.5195C112.953 23.8086 113.176 24.7773 113.621 25.4258C114.066 26.0664 114.703 26.3867 115.531 26.3867ZM133.33 18.9219L136.904 11.8672H140.818L135.134 22.332V29H131.525V22.4492L125.841 11.8672H129.779L133.33 18.9219ZM147.941 22.4258C147.941 23.7227 148.152 24.7031 148.573 25.3672C149.003 26.0312 149.698 26.3633 150.659 26.3633C151.613 26.3633 152.296 26.0352 152.71 25.3789C153.132 24.7148 153.343 23.7305 153.343 22.4258C153.343 21.1289 153.132 20.1562 152.71 19.5078C152.288 18.8594 151.597 18.5352 150.636 18.5352C149.683 18.5352 148.995 18.8594 148.573 19.5078C148.152 20.1484 147.941 21.1211 147.941 22.4258ZM156.999 22.4258C156.999 24.5586 156.437 26.2266 155.312 27.4297C154.187 28.6328 152.62 29.2344 150.613 29.2344C149.355 29.2344 148.245 28.9609 147.284 28.4141C146.323 27.8594 145.585 27.0664 145.07 26.0352C144.554 25.0039 144.296 23.8008 144.296 22.4258C144.296 20.2852 144.855 18.6211 145.972 17.4336C147.089 16.2461 148.659 15.6523 150.683 15.6523C151.941 15.6523 153.05 15.9258 154.011 16.4727C154.972 17.0195 155.71 17.8047 156.226 18.8281C156.741 19.8516 156.999 21.0508 156.999 22.4258ZM171.634 29L171.153 27.3242H170.966C170.583 27.9336 170.04 28.4062 169.337 28.7422C168.634 29.0703 167.833 29.2344 166.934 29.2344C165.395 29.2344 164.235 28.8242 163.454 28.0039C162.673 27.1758 162.282 25.9883 162.282 24.4414V15.8984H165.856V23.5508C165.856 24.4961 166.024 25.207 166.36 25.6836C166.696 26.1523 167.231 26.3867 167.966 26.3867C168.966 26.3867 169.688 26.0547 170.134 25.3906C170.579 24.7188 170.802 23.6094 170.802 22.0625V15.8984H174.376V29H171.634ZM187.838 15.6523C188.323 15.6523 188.725 15.6875 189.045 15.7578L188.776 19.1094C188.487 19.0312 188.135 18.9922 187.721 18.9922C186.58 18.9922 185.69 19.2852 185.049 19.8711C184.416 20.457 184.1 21.2773 184.1 22.332V29H180.526V15.8984H183.233L183.76 18.1016H183.936C184.342 17.3672 184.889 16.7773 185.577 16.332C186.272 15.8789 187.026 15.6523 187.838 15.6523ZM197.68 29H194.105V11.8672H203.926V14.8438H197.68V19.2617H203.492V22.2266H197.68V29ZM212.244 22.4258C212.244 23.7227 212.455 24.7031 212.877 25.3672C213.306 26.0312 214.002 26.3633 214.963 26.3633C215.916 26.3633 216.599 26.0352 217.013 25.3789C217.435 24.7148 217.646 23.7305 217.646 22.4258C217.646 21.1289 217.435 20.1562 217.013 19.5078C216.591 18.8594 215.9 18.5352 214.939 18.5352C213.986 18.5352 213.298 18.8594 212.877 19.5078C212.455 20.1484 212.244 21.1211 212.244 22.4258ZM221.302 22.4258C221.302 24.5586 220.74 26.2266 219.615 27.4297C218.49 28.6328 216.923 29.2344 214.916 29.2344C213.658 29.2344 212.548 28.9609 211.588 28.4141C210.627 27.8594 209.888 27.0664 209.373 26.0352C208.857 25.0039 208.599 23.8008 208.599 22.4258C208.599 20.2852 209.158 18.6211 210.275 17.4336C211.392 16.2461 212.963 15.6523 214.986 15.6523C216.244 15.6523 217.353 15.9258 218.314 16.4727C219.275 17.0195 220.013 17.8047 220.529 18.8281C221.045 19.8516 221.302 21.0508 221.302 22.4258ZM229.503 22.4258C229.503 23.7227 229.714 24.7031 230.136 25.3672C230.566 26.0312 231.261 26.3633 232.222 26.3633C233.175 26.3633 233.859 26.0352 234.273 25.3789C234.695 24.7148 234.905 23.7305 234.905 22.4258C234.905 21.1289 234.695 20.1562 234.273 19.5078C233.851 18.8594 233.159 18.5352 232.198 18.5352C231.245 18.5352 230.558 18.8594 230.136 19.5078C229.714 20.1484 229.503 21.1211 229.503 22.4258ZM238.562 22.4258C238.562 24.5586 237.999 26.2266 236.874 27.4297C235.749 28.6328 234.183 29.2344 232.175 29.2344C230.917 29.2344 229.808 28.9609 228.847 28.4141C227.886 27.8594 227.148 27.0664 226.632 26.0352C226.116 25.0039 225.859 23.8008 225.859 22.4258C225.859 20.2852 226.417 18.6211 227.534 17.4336C228.652 16.2461 230.222 15.6523 232.245 15.6523C233.503 15.6523 234.613 15.9258 235.573 16.4727C236.534 17.0195 237.273 17.8047 237.788 18.8281C238.304 19.8516 238.562 21.0508 238.562 22.4258ZM248.063 29.2344C246.524 29.2344 245.313 28.6367 244.43 27.4414C243.555 26.2461 243.118 24.5898 243.118 22.4727C243.118 20.3242 243.563 18.6523 244.454 17.457C245.352 16.2539 246.587 15.6523 248.157 15.6523C249.805 15.6523 251.063 16.293 251.93 17.5742H252.048C251.868 16.5977 251.778 15.7266 251.778 14.9609V10.7656H255.364V29H252.622L251.93 27.3008H251.778C250.966 28.5898 249.727 29.2344 248.063 29.2344ZM249.317 26.3867C250.231 26.3867 250.899 26.1211 251.321 25.5898C251.751 25.0586 251.985 24.1562 252.024 22.8828V22.4961C252.024 21.0898 251.805 20.082 251.368 19.4727C250.938 18.8633 250.235 18.5586 249.259 18.5586C248.462 18.5586 247.841 18.8984 247.395 19.5781C246.958 20.25 246.739 21.2305 246.739 22.5195C246.739 23.8086 246.962 24.7773 247.407 25.4258C247.852 26.0664 248.489 26.3867 249.317 26.3867Z" fill="white"/>
</svg>
